<svg id="Capa_1" enable-background="new 0 0 512 512" height="512" viewBox="0 0 512 512" width="512" xmlns="http://www.w3.org/2000/svg"><g><circle cx="256" cy="347" r="45"/><path d="m378.58 195.33c25.06-25.6 59.72-70.59 49.51-115.78-12.88-68.71-102.47-79.05-171.98-79.55h-.22c-69.36.5-159.07 10.69-171.98 79.55-10.21 45.19 24.45 90.18 49.51 115.78-45.65 36.88-72.42 92.32-72.42 151.67 0 65.46 32.58 126.2 87.16 162.49 2.46 1.64 5.35 2.51 8.31 2.51h199.06c2.96 0 5.85-.87 8.31-2.51 54.58-36.29 87.16-97.03 87.16-162.49 0-59.35-26.77-114.79-72.42-151.67zm-122.58 226.67c-41.35 0-75-33.65-75-75s33.65-75 75-75 75 33.65 75 75-33.65 75-75 75zm68.164-257.703c-21.703-8.074-44.853-12.297-68.164-12.297-23.623 0-46.477 4.131-68.19 12.264-20.371-19.214-43.95-43.185-43.95-65.334 0-36.76 75.24-38.92 112.14-38.93 36.84.01 112.14 2.16 112.14 38.93 0 22.11-23.662 46.203-43.976 65.367z"/></g></svg>